%TF.GenerationSoftware,KiCad,Pcbnew,8.0.1*%
%TF.CreationDate,2024-05-04T21:14:04+05:30*%
%TF.ProjectId,avr-ir-remote-led-lamp,6176722d-6972-42d7-9265-6d6f74652d6c,rev?*%
%TF.SameCoordinates,Original*%
%TF.FileFunction,Plated,1,2,PTH,Mixed*%
%TF.FilePolarity,Positive*%
%FSLAX46Y46*%
G04 Gerber Fmt 4.6, Leading zero omitted, Abs format (unit mm)*
G04 Created by KiCad (PCBNEW 8.0.1) date 2024-05-04 21:14:04*
%MOMM*%
%LPD*%
G01*
G04 APERTURE LIST*
%TA.AperFunction,ComponentDrill*%
%ADD10C,0.800000*%
%TD*%
%TA.AperFunction,ComponentDrill*%
%ADD11C,0.900000*%
%TD*%
G04 aperture for slot hole*
%TA.AperFunction,ComponentDrill*%
%ADD12C,1.000000*%
%TD*%
%TA.AperFunction,ComponentDrill*%
%ADD13C,1.000000*%
%TD*%
%TA.AperFunction,ComponentDrill*%
%ADD14C,1.100000*%
%TD*%
%TA.AperFunction,ComponentDrill*%
%ADD15C,2.200000*%
%TD*%
G04 APERTURE END LIST*
D10*
%TO.C,C3*%
X110500000Y-80500000D03*
%TO.C,C1*%
X110500000Y-99500000D03*
%TO.C,IR1*%
X112875000Y-107460000D03*
X112875000Y-110000000D03*
X112875000Y-112540000D03*
%TO.C,C3*%
X113000000Y-80500000D03*
%TO.C,C1*%
X113000000Y-99500000D03*
%TO.C,R9*%
X117920000Y-109000000D03*
%TO.C,R8*%
X117920000Y-112500000D03*
%TO.C,R10*%
X118920000Y-91000000D03*
%TO.C,C4*%
X119000000Y-96500000D03*
X119000000Y-99000000D03*
%TO.C,C2*%
X119000000Y-101750000D03*
X119000000Y-104250000D03*
%TO.C,Y1*%
X125000000Y-98050000D03*
X125000000Y-102950000D03*
%TO.C,R9*%
X128080000Y-109000000D03*
%TO.C,R8*%
X128080000Y-112500000D03*
%TO.C,R10*%
X129080000Y-91000000D03*
%TO.C,U1*%
X132440000Y-78665000D03*
X132440000Y-81205000D03*
X132440000Y-83745000D03*
X132440000Y-86285000D03*
X132440000Y-88825000D03*
X132440000Y-91365000D03*
X132440000Y-93905000D03*
X132440000Y-96445000D03*
X132440000Y-98985000D03*
X132440000Y-101525000D03*
X132440000Y-104065000D03*
X132440000Y-106605000D03*
X132440000Y-109145000D03*
X132440000Y-111685000D03*
X140060000Y-78665000D03*
X140060000Y-81205000D03*
X140060000Y-83745000D03*
X140060000Y-86285000D03*
X140060000Y-88825000D03*
X140060000Y-91365000D03*
X140060000Y-93905000D03*
X140060000Y-96445000D03*
X140060000Y-98985000D03*
X140060000Y-101525000D03*
X140060000Y-104065000D03*
X140060000Y-106605000D03*
X140060000Y-109145000D03*
X140060000Y-111685000D03*
%TO.C,R1*%
X143460000Y-80000000D03*
%TO.C,R2*%
X143460000Y-87000000D03*
%TO.C,R3*%
X143460000Y-94000000D03*
%TO.C,R4*%
X143460000Y-101000000D03*
%TO.C,R7*%
X143460000Y-105500000D03*
%TO.C,R6*%
X143460000Y-109000000D03*
%TO.C,R5*%
X143460000Y-112500000D03*
%TO.C,R1*%
X153620000Y-80000000D03*
%TO.C,R2*%
X153620000Y-87000000D03*
%TO.C,R3*%
X153620000Y-94000000D03*
%TO.C,R4*%
X153620000Y-101000000D03*
%TO.C,R7*%
X153620000Y-105500000D03*
%TO.C,R6*%
X153620000Y-109000000D03*
%TO.C,R5*%
X153620000Y-112500000D03*
D11*
%TO.C,D0*%
X157460000Y-80000000D03*
%TO.C,D1*%
X157460000Y-87000000D03*
%TO.C,D2*%
X157460000Y-94000000D03*
%TO.C,D3*%
X157460000Y-101000000D03*
%TO.C,D5*%
X158500000Y-106960000D03*
X158500000Y-108230000D03*
X158500000Y-109500000D03*
X158500000Y-110770000D03*
%TO.C,D0*%
X160000000Y-80000000D03*
%TO.C,D1*%
X160000000Y-87000000D03*
%TO.C,D2*%
X160000000Y-94000000D03*
%TO.C,D3*%
X160000000Y-101000000D03*
D12*
%TO.C,J1*%
X117300000Y-85000000D02*
X117300000Y-83000000D01*
X121000000Y-81000000D02*
X123000000Y-81000000D01*
X121000000Y-87000000D02*
X123000000Y-87000000D01*
D13*
%TO.C,J2*%
X129000000Y-75880000D03*
X129000000Y-78420000D03*
X129000000Y-80960000D03*
X129000000Y-83500000D03*
X129000000Y-86040000D03*
D14*
%TO.C,U2*%
X110555000Y-87460000D03*
X110555000Y-90000000D03*
X110555000Y-92540000D03*
D15*
%TO.C,REF\u002A\u002A*%
X109000000Y-74000000D03*
X109000000Y-117000000D03*
X162000000Y-74000000D03*
X162000000Y-117000000D03*
M02*
